<svg xmlns="http://www.w3.org/2000/svg" xmlns:xlink="http://www.w3.org/1999/xlink" viewBox="0 0 435.81 168.7"><defs><style>.cls-1,.cls-11,.cls-3,.cls-4{fill:#fff;}.cls-1{fill-opacity:0;}.cls-2{fill:#a6a6a6;}.cls-3{stroke:#fff;stroke-miterlimit:10;stroke-width:0.2px;}.cls-5{fill:url(#linear-gradient);}.cls-6{fill:url(#linear-gradient-2);}.cls-7{fill:url(#linear-gradient-3);}.cls-8{fill:url(#linear-gradient-4);}.cls-9{opacity:0.2;}.cls-10,.cls-11,.cls-9{isolation:isolate;}.cls-10{opacity:0.12;}.cls-11{opacity:0.25;}</style><linearGradient id="linear-gradient" x1="89.41" y1="118.09" x2="42.22" y2="70.91" gradientTransform="matrix(1, 0, 0, -1, 0, 170.7)" gradientUnits="userSpaceOnUse"><stop offset="0" stop-color="#00a0ff"/><stop offset="0.01" stop-color="#00a1ff"/><stop offset="0.26" stop-color="#00beff"/><stop offset="0.51" stop-color="#00d2ff"/><stop offset="0.76" stop-color="#00dfff"/><stop offset="1" stop-color="#00e3ff"/></linearGradient><linearGradient id="linear-gradient-2" x1="123.25" y1="86.35" x2="55.21" y2="86.35" gradientTransform="matrix(1, 0, 0, -1, 0, 170.7)" gradientUnits="userSpaceOnUse"><stop offset="0" stop-color="#ffe000"/><stop offset="0.41" stop-color="#ffbd00"/><stop offset="0.78" stop-color="orange"/><stop offset="1" stop-color="#ff9c00"/></linearGradient><linearGradient id="linear-gradient-3" x1="97.92" y1="79.89" x2="33.93" y2="15.91" gradientTransform="matrix(1, 0, 0, -1, 0, 170.7)" gradientUnits="userSpaceOnUse"><stop offset="0" stop-color="#ff3a44"/><stop offset="1" stop-color="#c31162"/></linearGradient><linearGradient id="linear-gradient-4" x1="48.63" y1="142.09" x2="77.21" y2="113.51" gradientTransform="matrix(1, 0, 0, -1, 0, 170.7)" gradientUnits="userSpaceOnUse"><stop offset="0" stop-color="#32a071"/><stop offset="0.07" stop-color="#2da771"/><stop offset="0.48" stop-color="#15cf74"/><stop offset="0.8" stop-color="#06e775"/><stop offset="1" stop-color="#00f076"/></linearGradient></defs><title>gp</title><g id="Layer_2" data-name="Layer 2"><g id="Layer_1-2" data-name="Layer 1"><g id="_Group_" data-name="&lt;Group&gt;"><rect id="_Rectangle_" data-name="&lt;Rectangle&gt;" class="cls-1" width="435.81" height="168.7"/><g id="_Group_2" data-name="&lt;Group&gt;"><rect x="28.12" y="28.12" width="379.57" height="112.47" rx="14.06" ry="14.06"/></g><g id="_Group_3" data-name="&lt;Group&gt;"><g id="_Group_4" data-name="&lt;Group&gt;"><path id="_Compound_Path_" data-name="&lt;Compound Path&gt;" class="cls-2" d="M393.63,30.37a11.82,11.82,0,0,1,11.81,11.81v84.35a11.82,11.82,0,0,1-11.81,11.81H42.18a11.82,11.82,0,0,1-11.81-11.81V42.18A11.82,11.82,0,0,1,42.18,30.37H393.63m0-2.25H42.18A14.1,14.1,0,0,0,28.12,42.18v84.35a14.1,14.1,0,0,0,14.06,14.06H393.63a14.1,14.1,0,0,0,14.06-14.06V42.18a14.1,14.1,0,0,0-14.06-14.06Z"/></g></g><g id="_Group_5" data-name="&lt;Group&gt;"><path id="_Compound_Path_2" data-name="&lt;Compound Path&gt;" class="cls-3" d="M161.44,56.92a7.61,7.61,0,0,1-2.1,5.63,8.18,8.18,0,0,1-6.2,2.5A8.86,8.86,0,0,1,146.94,50a8.49,8.49,0,0,1,6.21-2.53,8.7,8.7,0,0,1,3.46.71A7,7,0,0,1,159.25,50l-1.48,1.48a5.7,5.7,0,0,0-4.62-2,6.52,6.52,0,0,0-6.55,6.74,6.63,6.63,0,0,0,11.26,4.85,5.31,5.31,0,0,0,1.41-3.42h-6.13v-2h8.17A7.15,7.15,0,0,1,161.44,56.92Z"/><path id="_Compound_Path_3" data-name="&lt;Compound Path&gt;" class="cls-3" d="M174.4,49.87h-7.68v5.35h6.93v2h-6.93v5.35h7.68v2.07h-9.85V47.8h9.85Z"/><path id="_Compound_Path_4" data-name="&lt;Compound Path&gt;" class="cls-3" d="M183.54,64.67h-2.17V49.87h-4.71V47.8h11.59v2.07h-4.71Z"/><path id="_Compound_Path_5" data-name="&lt;Compound Path&gt;" class="cls-3" d="M196.64,64.67V47.8h2.17V64.67Z"/><path id="_Compound_Path_6" data-name="&lt;Compound Path&gt;" class="cls-3" d="M208.42,64.67h-2.17V49.87h-4.71V47.8h11.59v2.07h-4.71Z"/><path id="_Compound_Path_7" data-name="&lt;Compound Path&gt;" class="cls-3" d="M235.08,62.49a8.76,8.76,0,0,1-12.37,0,9.11,9.11,0,0,1,0-12.51,8.73,8.73,0,0,1,12.36,0,9.09,9.09,0,0,1,0,12.5Zm-10.77-1.41a6.49,6.49,0,0,0,9.17,0,7.19,7.19,0,0,0,0-9.68,6.49,6.49,0,0,0-9.17,0,7.2,7.2,0,0,0,0,9.68Z"/><path id="_Compound_Path_8" data-name="&lt;Compound Path&gt;" class="cls-3" d="M240.61,64.67V47.8h2.64l8.2,13.12h.09l-.09-3.25V47.8h2.17V64.67h-2.26l-8.58-13.76h-.09l.09,3.25V64.67Z"/></g><path id="_Compound_Path_9" data-name="&lt;Compound Path&gt;" class="cls-4" d="M219.69,89.27a12,12,0,1,0,12,12A11.79,11.79,0,0,0,219.69,89.27Zm0,19.21a7.27,7.27,0,1,1,6.75-7.25A6.92,6.92,0,0,1,219.69,108.48ZM193.5,89.27a12,12,0,1,0,12,12A11.79,11.79,0,0,0,193.5,89.27Zm0,19.21a7.27,7.27,0,1,1,6.75-7.25A6.92,6.92,0,0,1,193.5,108.48ZM162.36,92.94V98H174.5a10.59,10.59,0,0,1-2.76,6.39,12.43,12.43,0,0,1-9.38,3.71,13.5,13.5,0,0,1,0-27,12.94,12.94,0,0,1,9.15,3.62l3.58-3.58A17.7,17.7,0,0,0,162.36,76a18.57,18.57,0,1,0,0,37.14c5.53,0,9.69-1.81,13-5.21s4.39-8.06,4.39-11.87a16.51,16.51,0,0,0-.27-3.17Zm127.39,3.94c-1-2.67-4-7.61-10.24-7.61s-11.28,4.85-11.28,12a11.7,11.7,0,0,0,11.87,12,11.89,11.89,0,0,0,10-5.3L286,105.17a6.83,6.83,0,0,1-5.89,3.31,6.08,6.08,0,0,1-5.8-3.62l16-6.61Zm-16.31,4a6.56,6.56,0,0,1,6.25-7,4.63,4.63,0,0,1,4.44,2.54Zm-13,11.6h5.25V77.32h-5.25Zm-8.61-20.52h-.18a8.29,8.29,0,0,0-6.3-2.67c-6,0-11.46,5.25-11.46,12a11.84,11.84,0,0,0,11.46,11.91,8.15,8.15,0,0,0,6.3-2.72h.18v1.72c0,4.58-2.45,7-6.39,7a6.62,6.62,0,0,1-6-4.26l-4.58,1.9a11.4,11.4,0,0,0,10.6,7.07c6.16,0,11.37-3.62,11.37-12.46V90h-5Zm-6,16.53c-3.62,0-6.66-3-6.66-7.2s3-7.29,6.66-7.29,6.39,3.08,6.39,7.29S249.39,108.48,245.81,108.48Zm68.55-31.16H301.79v35.15H307V99.15h7.33c5.82,0,11.53-4.21,11.53-10.92S320.17,77.32,314.36,77.32Zm.14,16.94H307v-12h7.46a6,6,0,1,1,0,12Zm32.42-5c-3.8,0-7.73,1.67-9.36,5.38l4.66,1.94A5,5,0,0,1,347,94c2.71,0,5.47,1.63,5.52,4.52v.36a11.61,11.61,0,0,0-5.47-1.36c-5,0-10.13,2.76-10.13,7.91,0,4.7,4.11,7.73,8.73,7.73a7.4,7.4,0,0,0,6.69-3.44h.18v2.71h5.06V98.93C357.59,92.69,352.93,89.21,346.92,89.21Zm-.63,19.26c-1.72,0-4.12-.86-4.12-3,0-2.71,3-3.75,5.56-3.75a9.35,9.35,0,0,1,4.79,1.18A6.36,6.36,0,0,1,346.28,108.47ZM376,90l-6,15.24h-.18L363.6,90H358l9.36,21.3L362,123.13h5.47L381.87,90Zm-47.26,22.49H334V77.32h-5.25Z"/><g id="_Group_6" data-name="&lt;Group&gt;"><path id="_Path_" data-name="&lt;Path&gt;" class="cls-5" d="M57.46,49.31a5.63,5.63,0,0,0-1.3,4v62.18a5.63,5.63,0,0,0,1.3,4l.21.2L92.5,84.76v-.82L57.67,49.11Z"/><path id="_Path_2" data-name="&lt;Path&gt;" class="cls-6" d="M104.11,96.38,92.5,84.76v-.82l11.61-11.61.26.15,13.76,7.82c3.93,2.23,3.93,5.89,0,8.12l-13.76,7.82Z"/><path id="_Path_3" data-name="&lt;Path&gt;" class="cls-7" d="M104.37,96.23,92.5,84.35l-35,35c1.3,1.37,3.43,1.54,5.84.17l41.07-23.34"/><path id="_Path_4" data-name="&lt;Path&gt;" class="cls-8" d="M104.37,72.48,63.3,49.14c-2.41-1.37-4.55-1.2-5.84.17l35,35Z"/><g id="_Group_7" data-name="&lt;Group&gt;"><path id="_Path_5" data-name="&lt;Path&gt;" class="cls-9" d="M104.11,96,63.3,119.16c-2.28,1.3-4.32,1.21-5.63,0h0l-.21.21h0l.21.2h0c1.31,1.18,3.35,1.27,5.63,0l41.07-23.34Z"/><path id="_Path_6" data-name="&lt;Path&gt;" class="cls-10" d="M57.46,119a5.63,5.63,0,0,1-1.3-4v.41a5.63,5.63,0,0,0,1.3,4l.21-.21Z"/></g><path id="_Path_7" data-name="&lt;Path&gt;" class="cls-10" d="M118.13,88l-14,8,.26.26,13.76-7.82c2-1.12,2.95-2.59,2.95-4.06h0A5.24,5.24,0,0,1,118.13,88Z"/><path id="_Path_8" data-name="&lt;Path&gt;" class="cls-11" d="M63.3,49.55,118.13,80.7a5.23,5.23,0,0,1,2.95,3.65h0c0-1.47-1-2.94-2.95-4.06L63.3,49.14c-3.93-2.23-7.14-.38-7.14,4.12v.41C56.16,49.17,59.37,47.32,63.3,49.55Z"/></g></g></g></g></svg>